<svg width="78" height="15" viewBox="0 0 78 15" fill="none" xmlns="http://www.w3.org/2000/svg">
<g clip-path="url(#clip0_316_2258)">
<path d="M27.8859 14.3977C25.0841 14.3977 22.4878 13.5631 20.757 12.0069C20.1381 11.4508 19.6449 10.769 19.3104 10.0071C18.976 9.24518 18.808 8.42068 18.8175 7.58865C18.8156 6.76005 18.9872 5.94022 19.3212 5.18193C19.6552 4.42364 20.1443 3.74369 20.757 3.18582C22.3642 1.72542 25.2077 0.798187 27.8859 0.798187C30.8484 0.798187 33.2206 1.54461 35.0334 3.18891C35.6436 3.74659 36.1294 4.42667 36.4591 5.18478C36.7887 5.9429 36.9548 6.762 36.9465 7.58865C36.9424 8.41612 36.7708 9.23418 36.442 9.99352C36.1132 10.7529 35.634 11.4378 35.0334 12.0069C33.3442 13.5724 30.6923 14.3977 27.8859 14.3977V12.6081C29.371 12.6081 30.7495 12.095 31.7123 11.1369C32.6751 10.1787 33.1124 9.01659 33.1124 7.58247C33.1124 6.21325 32.6318 4.93366 31.7123 4.02806C30.7619 3.0931 29.3509 2.56612 27.8859 2.56612C26.4209 2.56612 25.0037 3.08846 24.0533 4.02806C23.1369 4.93521 22.6625 6.21943 22.6625 7.58247C22.6487 8.23734 22.7645 8.88848 23.0032 9.49847C23.2419 10.1084 23.5988 10.6652 24.0533 11.1369C25.0037 12.0842 26.4116 12.6081 27.8859 12.6081V14.3977ZM7.42798 0.798187C5.93049 0.798187 4.22901 1.07945 2.79179 1.72542C1.45039 2.32504 0.357798 3.28782 0.357798 4.88421C0.355782 5.7202 0.67372 6.52527 1.2464 7.1343C1.63429 7.49284 2.26018 8.10172 3.89521 8.46025C4.62618 8.61479 6.18857 8.8636 7.74478 9.02741C9.30099 9.19122 10.8093 9.33649 11.4275 9.50185C11.9189 9.62702 12.7457 9.79702 12.7457 10.7243C12.7457 11.6515 11.8756 11.9297 11.7242 11.9899C11.5727 12.0502 10.528 12.5293 8.65193 12.5293C7.40889 12.4948 6.17715 12.283 4.99398 11.9003C4.29392 11.6499 3.55985 11.3208 2.87524 10.4847C2.59896 10.091 2.44568 9.62418 2.43481 9.14332H0.734874V13.9031H2.62335V13.2587C2.62305 13.2109 2.6355 13.1639 2.65941 13.1225C2.68332 13.0811 2.71784 13.0468 2.7594 13.0232C2.80096 12.9996 2.84807 12.9875 2.89586 12.9881C2.94366 12.9888 2.99042 13.0022 3.03133 13.0269C3.92105 13.414 4.84651 13.7132 5.79449 13.9201C6.78664 14.1272 7.42798 14.2771 8.6612 14.2771C9.96252 14.3019 11.2594 14.1187 12.5031 13.7347C13.3289 13.5083 14.1037 13.1259 14.7856 12.6081C15.1692 12.3135 15.4792 11.9339 15.6913 11.4992C15.9034 11.0646 16.0118 10.5866 16.008 10.103C16.0145 9.18419 15.6598 8.29958 15.0205 7.63965C14.665 7.29463 14.2531 7.01292 13.8027 6.80668C13.3185 6.58791 12.8158 6.41259 12.3006 6.28279C11.3208 6.04326 9.12018 5.74345 8.06777 5.63836C6.96436 5.524 5.04961 5.36483 4.28464 5.12838C4.05284 5.05575 3.57994 4.83167 3.57994 4.28305C3.57994 3.89207 3.7963 3.56135 4.22283 3.294C4.90126 2.86902 6.27048 2.60475 7.69842 2.60475C9.08059 2.58807 10.4514 2.85582 11.7257 3.39136C12.0681 3.54051 12.3901 3.73265 12.6839 3.96315C13.1628 4.37223 13.4945 4.92701 13.6281 5.54255H15.1534V1.39935H13.4535V1.87996C13.4535 2.0345 13.2989 2.23849 12.9899 2.07005C12.2233 1.67133 10.0691 0.809005 7.42798 0.798187ZM44.7477 1.55852L53.0557 9.05523L52.9707 4.00797C52.9615 3.345 52.8409 3.06837 52.1239 3.06837H50.563V1.55852H57.6718V3.06837H56.1465C55.4171 3.06837 55.3738 3.30327 55.3615 4.00797L55.4897 13.6528H53.0557L43.4851 5.11293V11.1724C43.4928 11.8323 43.5238 12.1429 44.2022 12.1429H45.9021V13.6528H38.9339V12.1429H40.5659C41.1747 12.1429 41.15 11.5619 41.15 11.1384V4.06515C41.15 3.60153 41.0851 3.06992 40.1301 3.06992H38.8072V1.55852H44.7477ZM65.7821 12.1398C65.9226 12.1398 66.063 12.1311 66.2024 12.1136C66.2748 12.0918 66.3417 12.0546 66.3982 12.0044C66.4548 11.9542 66.4998 11.8923 66.53 11.823C66.5514 11.7156 66.5622 11.6064 66.5625 11.497V9.10932C66.5625 9.02896 66.5625 9.02741 66.4605 8.90069C66.3585 8.77397 62.1087 3.95543 61.9155 3.73907C61.6744 3.47636 61.251 3.06992 60.6065 3.06992H59.1307V1.55852H67.4604V3.06683H66.4559C66.224 3.06683 66.0695 3.28782 66.2673 3.53044C66.2673 3.53044 69.0707 6.88395 69.0969 6.91949C69.1232 6.95504 69.1464 6.96276 69.1819 6.93031C69.2175 6.89786 72.0548 3.56135 72.0765 3.53044C72.11 3.48643 72.1302 3.43371 72.1346 3.37855C72.1391 3.3234 72.1276 3.26812 72.1016 3.2193C72.0755 3.17047 72.036 3.13015 71.9877 3.10312C71.9395 3.07609 71.8844 3.06349 71.8292 3.06683H70.7984V1.55852H77.6275V3.06992H76.1022C75.549 3.06992 75.3295 3.17191 74.9076 3.64171L70.3101 8.88678C70.2651 8.95171 70.2453 9.03084 70.2544 9.10932V11.4954C70.2552 11.6049 70.2666 11.7141 70.2884 11.8215C70.3182 11.8909 70.3628 11.9528 70.4191 12.0031C70.4755 12.0533 70.5422 12.0905 70.6145 12.112C70.7528 12.1303 70.8923 12.1391 71.0318 12.1383H72.5911V13.6497H64.3047V12.1383L65.7821 12.1398Z" fill="white"/>
</g>
<defs>
<clipPath id="clip0_316_2258">
<rect width="77.2697" height="13.5995" fill="white" transform="translate(0.357788 0.798187)"/>
</clipPath>
</defs>
</svg>